<svg aria-hidden="true" style="width:0;height:0;position:absolute;overflow:hidden" xmlns="http://www.w3.org/2000/svg"><defs><symbol id="icon-search" viewBox="0 0 31 32"><path d="M12.8 23.68c2.272 0 4.478-.761 6.268-2.161l5.627 5.627 1.81-1.81-5.627-5.627a10.184 10.184 0 0 0 2.162-6.269c0-5.646-4.594-10.24-10.24-10.24S2.56 7.794 2.56 13.44 7.154 23.68 12.8 23.68zm0-17.92c4.236 0 7.68 3.444 7.68 7.68s-3.444 7.68-7.68 7.68-7.68-3.444-7.68-7.68 3.444-7.68 7.68-7.68z"/></symbol><symbol id="icon-shevron-down" viewBox="0 0 32 32"><path d="m7.791 12.79 7.543 7.543 7.543-7.543-.943-.943-6.6 6.6-6.6-6.6-.943.943z"/><path d="m7.791 12.792 7.543 7.543 7.543-7.543-.943-.943-6.6 6.6-6.6-6.6-.943.943z"/></symbol><symbol id="icon-shevron-down-big" viewBox="0 0 32 32"><path d="m16.724 21.24 10.62-11.146a1.001 1.001 0 0 0 0-1.38l-.012-.012a.921.921 0 0 0-1.334 0l-10 10.496L6.002 8.702a.921.921 0 0 0-1.334 0l-.012.012a1.001 1.001 0 0 0 0 1.38l10.62 11.146a.994.994 0 0 0 .724.31.993.993 0 0 0 .724-.31z"/></symbol><symbol id="icon-burger" viewBox="0 0 58 32"><path d="M29.156 4.693h26.24c1.067 0 1.92-.853 1.92-1.849 0-1.067-.853-1.92-1.92-1.92H2.845c-1.067 0-1.92.853-1.92 1.92 0 .996.853 1.849 1.92 1.849h26.311zM29.156 17.849h26.24c1.067 0 1.92-.853 1.92-1.849 0-1.067-.853-1.92-1.92-1.92H2.845c-1.067 0-1.92.853-1.92 1.92 0 .996.853 1.849 1.92 1.849h26.311zM29.156 31.004h26.24c1.067 0 1.92-.853 1.92-1.92 0-.996-.853-1.849-1.92-1.849H2.845c-1.067 0-1.92.853-1.92 1.849 0 1.067.853 1.92 1.92 1.92h26.311z"/></symbol></defs></svg>