<svg aria-hidden="true" style="position: absolute; width: 0; height: 0; overflow: hidden;" version="1.1" xmlns="http://www.w3.org/2000/svg" xmlns:xlink="http://www.w3.org/1999/xlink">
<defs>
<symbol id="icon-search" viewBox="0 0 31 32">
<path d="M12.8 23.68c2.272-0 4.478-0.761 6.268-2.161l5.627 5.627 1.81-1.81-5.627-5.627c1.4-1.79 2.161-3.997 2.162-6.269 0-5.646-4.594-10.24-10.24-10.24s-10.24 4.594-10.24 10.24c0 5.646 4.594 10.24 10.24 10.24zM12.8 5.76c4.236 0 7.68 3.444 7.68 7.68s-3.444 7.68-7.68 7.68c-4.236 0-7.68-3.444-7.68-7.68s3.444-7.68 7.68-7.68z"></path>
</symbol>
<symbol id="icon-shevron-down" viewBox="0 0 32 32">
<path d="M7.791 12.79l7.543 7.543 7.543-7.543-0.943-0.943-6.6 6.6-6.6-6.6-0.943 0.943z"></path>
<path d="M7.791 12.792l7.543 7.543 7.543-7.543-0.943-0.943-6.6 6.6-6.6-6.6-0.943 0.943z"></path>
</symbol>
<symbol id="icon-shevron-down-big" viewBox="0 0 32 32">
<path d="M16.724 21.24l10.62-11.146c0.177-0.186 0.276-0.433 0.276-0.69s-0.099-0.504-0.276-0.69l-0.012-0.012c-0.086-0.090-0.189-0.163-0.304-0.212s-0.238-0.075-0.363-0.075c-0.125 0-0.248 0.025-0.363 0.075s-0.218 0.121-0.304 0.212l-10 10.496-9.996-10.496c-0.086-0.090-0.189-0.163-0.304-0.212s-0.238-0.075-0.363-0.075c-0.125 0-0.248 0.025-0.363 0.075s-0.218 0.121-0.304 0.212l-0.012 0.012c-0.177 0.186-0.276 0.433-0.276 0.69s0.099 0.504 0.276 0.69l10.62 11.146c0.093 0.098 0.206 0.176 0.33 0.229s0.258 0.081 0.394 0.081c0.135 0 0.269-0.027 0.394-0.081s0.237-0.131 0.33-0.229z"></path>
</symbol>
<symbol id="icon-burger" viewBox="0 0 58 32">
<path d="M29.156 4.693h26.24c1.067 0 1.92-0.853 1.92-1.849 0-1.067-0.853-1.92-1.92-1.92h-52.551c-1.067 0-1.92 0.853-1.92 1.92 0 0.996 0.853 1.849 1.92 1.849h26.311z"></path>
<path d="M29.156 17.849h26.24c1.067 0 1.92-0.853 1.92-1.849 0-1.067-0.853-1.92-1.92-1.92h-52.551c-1.067 0-1.92 0.853-1.92 1.92 0 0.996 0.853 1.849 1.92 1.849h26.311z"></path>
<path d="M29.156 31.004h26.24c1.067 0 1.92-0.853 1.92-1.92 0-0.996-0.853-1.849-1.92-1.849h-52.551c-1.067 0-1.92 0.853-1.92 1.849 0 1.067 0.853 1.92 1.92 1.92h26.311z"></path>
</symbol>
</defs>
</svg>
